<mxfile host="app.diagrams.net" modified="2024-06-04T18:50:24.272Z" agent="Mozilla/5.0 (Windows NT 10.0; Win64; x64) AppleWebKit/537.36 (KHTML, like Gecko) Chrome/125.0.0.0 Safari/537.36" etag="9Q8ktfcg0GM1jLlDCUXc" version="24.4.13" type="device">
  <diagram name="Страница — 1" id="uJlLu_NNA7cEfUzYpDPk">
    <mxGraphModel dx="1687" dy="918" grid="0" gridSize="10" guides="1" tooltips="1" connect="1" arrows="1" fold="1" page="1" pageScale="1" pageWidth="827" pageHeight="1169" math="0" shadow="0">
      <root>
        <mxCell id="0" />
        <mxCell id="1" parent="0" />
        <mxCell id="BFdzXG5okMk7Aakmpo8b-12" style="edgeStyle=orthogonalEdgeStyle;rounded=0;orthogonalLoop=1;jettySize=auto;html=1;exitX=0.5;exitY=1;exitDx=0;exitDy=0;entryX=0.5;entryY=0;entryDx=0;entryDy=0;" parent="1" source="3cnSDZSguUmbzIyHWQNQ-1" target="BFdzXG5okMk7Aakmpo8b-10" edge="1">
          <mxGeometry relative="1" as="geometry" />
        </mxCell>
        <mxCell id="tV7z-Q59JDjEdSuUqA4o-8" style="edgeStyle=orthogonalEdgeStyle;rounded=0;orthogonalLoop=1;jettySize=auto;html=1;exitX=0.75;exitY=0;exitDx=0;exitDy=0;entryX=0.5;entryY=0;entryDx=0;entryDy=0;" edge="1" parent="1" source="3cnSDZSguUmbzIyHWQNQ-1" target="BFdzXG5okMk7Aakmpo8b-33">
          <mxGeometry relative="1" as="geometry" />
        </mxCell>
        <mxCell id="tV7z-Q59JDjEdSuUqA4o-9" style="edgeStyle=orthogonalEdgeStyle;rounded=0;orthogonalLoop=1;jettySize=auto;html=1;exitX=1;exitY=0.5;exitDx=0;exitDy=0;entryX=0.5;entryY=0;entryDx=0;entryDy=0;" edge="1" parent="1" source="3cnSDZSguUmbzIyHWQNQ-1" target="BFdzXG5okMk7Aakmpo8b-13">
          <mxGeometry relative="1" as="geometry" />
        </mxCell>
        <mxCell id="3cnSDZSguUmbzIyHWQNQ-1" value="Объект" style="rounded=0;strokeColor=default;align=center;verticalAlign=middle;fontFamily=Helvetica;fontSize=12;fontColor=default;fillColor=default;imageAlign=center;whiteSpace=wrap;" parent="1" vertex="1">
          <mxGeometry x="370" y="265" width="120" height="60" as="geometry" />
        </mxCell>
        <mxCell id="BFdzXG5okMk7Aakmpo8b-18" style="edgeStyle=orthogonalEdgeStyle;rounded=0;orthogonalLoop=1;jettySize=auto;html=1;exitX=0.5;exitY=0;exitDx=0;exitDy=0;entryX=0.5;entryY=1;entryDx=0;entryDy=0;" parent="1" source="3cnSDZSguUmbzIyHWQNQ-2" target="BFdzXG5okMk7Aakmpo8b-15" edge="1">
          <mxGeometry relative="1" as="geometry" />
        </mxCell>
        <mxCell id="3cnSDZSguUmbzIyHWQNQ-2" value="Договор" style="rounded=0;strokeColor=default;align=center;verticalAlign=middle;fontFamily=Helvetica;fontSize=12;fontColor=default;fillColor=default;imageAlign=center;whiteSpace=wrap;" parent="1" vertex="1">
          <mxGeometry x="534" y="510" width="120" height="60" as="geometry" />
        </mxCell>
        <mxCell id="BFdzXG5okMk7Aakmpo8b-1" style="edgeStyle=orthogonalEdgeStyle;rounded=0;orthogonalLoop=1;jettySize=auto;html=1;exitX=1;exitY=0.5;exitDx=0;exitDy=0;entryX=0.5;entryY=1;entryDx=0;entryDy=0;" parent="1" source="3cnSDZSguUmbzIyHWQNQ-3" target="3cnSDZSguUmbzIyHWQNQ-2" edge="1">
          <mxGeometry relative="1" as="geometry">
            <Array as="points">
              <mxPoint x="430" y="550" />
              <mxPoint x="482" y="550" />
              <mxPoint x="482" y="590" />
              <mxPoint x="594" y="590" />
            </Array>
          </mxGeometry>
        </mxCell>
        <mxCell id="BFdzXG5okMk7Aakmpo8b-11" style="edgeStyle=orthogonalEdgeStyle;rounded=0;orthogonalLoop=1;jettySize=auto;html=1;exitX=0.75;exitY=0;exitDx=0;exitDy=0;entryX=0.5;entryY=1;entryDx=0;entryDy=0;" parent="1" source="3cnSDZSguUmbzIyHWQNQ-3" target="BFdzXG5okMk7Aakmpo8b-10" edge="1">
          <mxGeometry relative="1" as="geometry" />
        </mxCell>
        <mxCell id="3cnSDZSguUmbzIyHWQNQ-3" value="Планы и чертежи" style="rounded=0;align=center;strokeColor=default;verticalAlign=middle;fontFamily=Helvetica;fontSize=12;fontColor=default;fillColor=default;whiteSpace=wrap;" parent="1" vertex="1">
          <mxGeometry x="310" y="510" width="120" height="60" as="geometry" />
        </mxCell>
        <mxCell id="3cnSDZSguUmbzIyHWQNQ-21" value="" style="edgeStyle=orthogonalEdgeStyle;rounded=0;orthogonalLoop=1;jettySize=auto;exitX=0.5;exitY=0;exitDx=0;exitDy=0;entryX=0.5;entryY=1;entryDx=0;entryDy=0;align=center;verticalAlign=middle;" parent="1" source="3cnSDZSguUmbzIyHWQNQ-4" target="3cnSDZSguUmbzIyHWQNQ-3" edge="1">
          <mxGeometry relative="1" as="geometry" />
        </mxCell>
        <mxCell id="3cnSDZSguUmbzIyHWQNQ-4" value="Технические условия" style="rounded=0;strokeColor=default;align=center;verticalAlign=middle;fontFamily=Helvetica;fontSize=12;fontColor=default;fillColor=default;imageAlign=center;whiteSpace=wrap;" parent="1" vertex="1">
          <mxGeometry x="180" y="620" width="146" height="60" as="geometry" />
        </mxCell>
        <mxCell id="3cnSDZSguUmbzIyHWQNQ-20" value="" style="edgeStyle=orthogonalEdgeStyle;rounded=0;orthogonalLoop=1;jettySize=auto;exitX=0;exitY=0.5;exitDx=0;exitDy=0;entryX=1;entryY=0.5;entryDx=0;entryDy=0;align=center;verticalAlign=middle;" parent="1" source="3cnSDZSguUmbzIyHWQNQ-5" target="3cnSDZSguUmbzIyHWQNQ-4" edge="1">
          <mxGeometry relative="1" as="geometry" />
        </mxCell>
        <mxCell id="3cnSDZSguUmbzIyHWQNQ-5" value="Сетевой организацией" style="rounded=0;strokeColor=default;align=center;verticalAlign=middle;fontFamily=Helvetica;fontSize=12;fontColor=default;fillColor=default;imageAlign=center;whiteSpace=wrap;" parent="1" vertex="1">
          <mxGeometry x="445" y="651" width="120" height="60" as="geometry" />
        </mxCell>
        <mxCell id="tV7z-Q59JDjEdSuUqA4o-6" style="edgeStyle=orthogonalEdgeStyle;rounded=0;orthogonalLoop=1;jettySize=auto;html=1;exitX=0.25;exitY=1;exitDx=0;exitDy=0;entryX=1;entryY=0.5;entryDx=0;entryDy=0;" edge="1" parent="1" source="3cnSDZSguUmbzIyHWQNQ-6" target="tV7z-Q59JDjEdSuUqA4o-3">
          <mxGeometry relative="1" as="geometry" />
        </mxCell>
        <mxCell id="3cnSDZSguUmbzIyHWQNQ-6" value="График работ" style="rounded=0;strokeColor=default;align=center;verticalAlign=middle;fontFamily=Helvetica;fontSize=12;fontColor=default;fillColor=default;imageAlign=center;whiteSpace=wrap;" parent="1" vertex="1">
          <mxGeometry x="620" y="20" width="120" height="60" as="geometry" />
        </mxCell>
        <mxCell id="BFdzXG5okMk7Aakmpo8b-9" style="edgeStyle=orthogonalEdgeStyle;rounded=0;orthogonalLoop=1;jettySize=auto;html=1;exitX=0;exitY=0.5;exitDx=0;exitDy=0;entryX=0.5;entryY=1;entryDx=0;entryDy=0;" parent="1" source="3cnSDZSguUmbzIyHWQNQ-7" target="3cnSDZSguUmbzIyHWQNQ-6" edge="1">
          <mxGeometry relative="1" as="geometry">
            <Array as="points">
              <mxPoint x="680" y="94" />
            </Array>
          </mxGeometry>
        </mxCell>
        <mxCell id="3cnSDZSguUmbzIyHWQNQ-7" value="Отдел строительства" style="rounded=0;strokeColor=default;align=center;verticalAlign=middle;fontFamily=Helvetica;fontSize=12;fontColor=default;fillColor=default;imageAlign=center;whiteSpace=wrap;" parent="1" vertex="1">
          <mxGeometry x="800" y="69" width="120" height="60" as="geometry" />
        </mxCell>
        <mxCell id="tV7z-Q59JDjEdSuUqA4o-4" style="edgeStyle=orthogonalEdgeStyle;rounded=0;orthogonalLoop=1;jettySize=auto;html=1;exitX=0.75;exitY=1;exitDx=0;exitDy=0;entryX=0.5;entryY=0;entryDx=0;entryDy=0;" edge="1" parent="1" source="3cnSDZSguUmbzIyHWQNQ-8" target="tV7z-Q59JDjEdSuUqA4o-3">
          <mxGeometry relative="1" as="geometry" />
        </mxCell>
        <mxCell id="3cnSDZSguUmbzIyHWQNQ-8" value="Бригады" style="rounded=0;whiteSpace=wrap;" parent="1" vertex="1">
          <mxGeometry x="166" y="26" width="120" height="60" as="geometry" />
        </mxCell>
        <mxCell id="BFdzXG5okMk7Aakmpo8b-42" style="edgeStyle=orthogonalEdgeStyle;rounded=0;orthogonalLoop=1;jettySize=auto;html=1;exitX=1;exitY=0.5;exitDx=0;exitDy=0;entryX=0;entryY=0.5;entryDx=0;entryDy=0;" parent="1" source="3cnSDZSguUmbzIyHWQNQ-9" target="3cnSDZSguUmbzIyHWQNQ-11" edge="1">
          <mxGeometry relative="1" as="geometry">
            <Array as="points">
              <mxPoint x="514" y="118" />
              <mxPoint x="765" y="118" />
              <mxPoint x="765" y="219" />
            </Array>
          </mxGeometry>
        </mxCell>
        <mxCell id="tV7z-Q59JDjEdSuUqA4o-5" style="edgeStyle=orthogonalEdgeStyle;rounded=0;orthogonalLoop=1;jettySize=auto;html=1;exitX=0.5;exitY=1;exitDx=0;exitDy=0;entryX=0.5;entryY=0;entryDx=0;entryDy=0;" edge="1" parent="1" source="3cnSDZSguUmbzIyHWQNQ-9" target="tV7z-Q59JDjEdSuUqA4o-3">
          <mxGeometry relative="1" as="geometry">
            <Array as="points">
              <mxPoint x="454" y="108" />
              <mxPoint x="334" y="108" />
            </Array>
          </mxGeometry>
        </mxCell>
        <mxCell id="3cnSDZSguUmbzIyHWQNQ-9" value="Подрядчики" style="rounded=0;strokeColor=default;align=center;verticalAlign=middle;fontFamily=Helvetica;fontSize=12;fontColor=default;fillColor=default;imageAlign=center;whiteSpace=wrap;" parent="1" vertex="1">
          <mxGeometry x="394" y="14" width="120" height="60" as="geometry" />
        </mxCell>
        <mxCell id="BFdzXG5okMk7Aakmpo8b-29" style="edgeStyle=orthogonalEdgeStyle;rounded=0;orthogonalLoop=1;jettySize=auto;html=1;exitX=1;exitY=0.5;exitDx=0;exitDy=0;entryX=0.5;entryY=0;entryDx=0;entryDy=0;" parent="1" source="3cnSDZSguUmbzIyHWQNQ-11" target="3cnSDZSguUmbzIyHWQNQ-12" edge="1">
          <mxGeometry relative="1" as="geometry" />
        </mxCell>
        <mxCell id="3cnSDZSguUmbzIyHWQNQ-11" value="Рабочая комиссия" style="rounded=0;strokeColor=default;align=center;verticalAlign=middle;fontFamily=Helvetica;fontSize=12;fontColor=default;fillColor=default;imageAlign=center;whiteSpace=wrap;" parent="1" vertex="1">
          <mxGeometry x="810" y="189" width="120" height="60" as="geometry" />
        </mxCell>
        <mxCell id="BFdzXG5okMk7Aakmpo8b-32" style="edgeStyle=orthogonalEdgeStyle;rounded=0;orthogonalLoop=1;jettySize=auto;html=1;exitX=0.5;exitY=1;exitDx=0;exitDy=0;entryX=0.5;entryY=0;entryDx=0;entryDy=0;" parent="1" source="3cnSDZSguUmbzIyHWQNQ-12" target="3cnSDZSguUmbzIyHWQNQ-13" edge="1">
          <mxGeometry relative="1" as="geometry" />
        </mxCell>
        <mxCell id="3cnSDZSguUmbzIyHWQNQ-12" value="Акт приемки выполненных&#xa;работ" style="rounded=0;strokeColor=default;align=center;verticalAlign=middle;fontFamily=Helvetica;fontSize=12;fontColor=default;fillColor=default;imageAlign=center;whiteSpace=wrap;" parent="1" vertex="1">
          <mxGeometry x="870" y="300" width="140" height="95" as="geometry" />
        </mxCell>
        <mxCell id="BFdzXG5okMk7Aakmpo8b-30" style="edgeStyle=orthogonalEdgeStyle;rounded=0;orthogonalLoop=1;jettySize=auto;html=1;exitX=0;exitY=0.5;exitDx=0;exitDy=0;entryX=1;entryY=0.5;entryDx=0;entryDy=0;" parent="1" source="3cnSDZSguUmbzIyHWQNQ-13" target="3cnSDZSguUmbzIyHWQNQ-14" edge="1">
          <mxGeometry relative="1" as="geometry" />
        </mxCell>
        <mxCell id="3cnSDZSguUmbzIyHWQNQ-13" value="Стройнадзор" style="rounded=0;strokeColor=default;align=center;verticalAlign=middle;fontFamily=Helvetica;fontSize=12;fontColor=default;fillColor=default;imageAlign=center;whiteSpace=wrap;" parent="1" vertex="1">
          <mxGeometry x="920" y="470" width="150" height="50" as="geometry" />
        </mxCell>
        <mxCell id="3cnSDZSguUmbzIyHWQNQ-14" value="Заключение" style="rounded=0;strokeColor=default;align=center;verticalAlign=middle;fontFamily=Helvetica;fontSize=12;fontColor=default;fillColor=default;imageAlign=center;whiteSpace=wrap;" parent="1" vertex="1">
          <mxGeometry x="740" y="547" width="160" height="75" as="geometry" />
        </mxCell>
        <mxCell id="BFdzXG5okMk7Aakmpo8b-4" style="edgeStyle=orthogonalEdgeStyle;rounded=0;orthogonalLoop=1;jettySize=auto;html=1;exitX=0;exitY=0.5;exitDx=0;exitDy=0;entryX=0.5;entryY=0;entryDx=0;entryDy=0;" parent="1" source="3cnSDZSguUmbzIyHWQNQ-15" target="BFdzXG5okMk7Aakmpo8b-3" edge="1">
          <mxGeometry relative="1" as="geometry" />
        </mxCell>
        <mxCell id="BFdzXG5okMk7Aakmpo8b-7" style="edgeStyle=orthogonalEdgeStyle;rounded=0;orthogonalLoop=1;jettySize=auto;html=1;exitX=0.5;exitY=1;exitDx=0;exitDy=0;entryX=0.25;entryY=0;entryDx=0;entryDy=0;" parent="1" source="3cnSDZSguUmbzIyHWQNQ-15" target="3cnSDZSguUmbzIyHWQNQ-3" edge="1">
          <mxGeometry relative="1" as="geometry" />
        </mxCell>
        <mxCell id="BFdzXG5okMk7Aakmpo8b-8" value="FK_архитектора" style="edgeLabel;html=1;align=center;verticalAlign=middle;resizable=0;points=[];" parent="BFdzXG5okMk7Aakmpo8b-7" vertex="1" connectable="0">
          <mxGeometry x="-0.0644" y="4" relative="1" as="geometry">
            <mxPoint x="-1" as="offset" />
          </mxGeometry>
        </mxCell>
        <mxCell id="BFdzXG5okMk7Aakmpo8b-19" style="edgeStyle=orthogonalEdgeStyle;rounded=0;orthogonalLoop=1;jettySize=auto;html=1;exitX=0.75;exitY=0;exitDx=0;exitDy=0;entryX=1;entryY=0.5;entryDx=0;entryDy=0;" parent="1" source="3cnSDZSguUmbzIyHWQNQ-15" target="BFdzXG5okMk7Aakmpo8b-13" edge="1">
          <mxGeometry relative="1" as="geometry">
            <Array as="points">
              <mxPoint x="250" y="230" />
              <mxPoint x="684" y="230" />
              <mxPoint x="684" y="370" />
            </Array>
          </mxGeometry>
        </mxCell>
        <mxCell id="BFdzXG5okMk7Aakmpo8b-20" value="Fk_люди" style="edgeLabel;html=1;align=center;verticalAlign=middle;resizable=0;points=[];" parent="BFdzXG5okMk7Aakmpo8b-19" vertex="1" connectable="0">
          <mxGeometry x="0.089" y="3" relative="1" as="geometry">
            <mxPoint x="1" as="offset" />
          </mxGeometry>
        </mxCell>
        <mxCell id="BFdzXG5okMk7Aakmpo8b-38" style="edgeStyle=orthogonalEdgeStyle;rounded=0;orthogonalLoop=1;jettySize=auto;html=1;exitX=0.25;exitY=0;exitDx=0;exitDy=0;entryX=0.5;entryY=1;entryDx=0;entryDy=0;" parent="1" source="3cnSDZSguUmbzIyHWQNQ-15" target="BFdzXG5okMk7Aakmpo8b-37" edge="1">
          <mxGeometry relative="1" as="geometry" />
        </mxCell>
        <mxCell id="tV7z-Q59JDjEdSuUqA4o-2" style="edgeStyle=orthogonalEdgeStyle;rounded=0;orthogonalLoop=1;jettySize=auto;html=1;exitX=0.5;exitY=0;exitDx=0;exitDy=0;entryX=0.25;entryY=1;entryDx=0;entryDy=0;" edge="1" parent="1" source="3cnSDZSguUmbzIyHWQNQ-15" target="3cnSDZSguUmbzIyHWQNQ-8">
          <mxGeometry relative="1" as="geometry" />
        </mxCell>
        <mxCell id="3cnSDZSguUmbzIyHWQNQ-15" value="Люди" style="rounded=0;align=center;verticalAlign=middle;whiteSpace=wrap;" parent="1" vertex="1">
          <mxGeometry x="160" y="350" width="120" height="60" as="geometry" />
        </mxCell>
        <mxCell id="BFdzXG5okMk7Aakmpo8b-6" style="edgeStyle=orthogonalEdgeStyle;rounded=0;orthogonalLoop=1;jettySize=auto;html=1;exitX=0.5;exitY=1;exitDx=0;exitDy=0;entryX=0;entryY=0.5;entryDx=0;entryDy=0;" parent="1" source="BFdzXG5okMk7Aakmpo8b-3" target="3cnSDZSguUmbzIyHWQNQ-3" edge="1">
          <mxGeometry relative="1" as="geometry" />
        </mxCell>
        <mxCell id="BFdzXG5okMk7Aakmpo8b-3" value="Предпочтения клиента" style="rounded=0;whiteSpace=wrap;html=1;strokeColor=default;align=center;verticalAlign=middle;fontFamily=Helvetica;fontSize=12;fontColor=default;fillColor=default;" parent="1" vertex="1">
          <mxGeometry x="60" y="460" width="120" height="60" as="geometry" />
        </mxCell>
        <mxCell id="BFdzXG5okMk7Aakmpo8b-10" value="Чертежи обьекта" style="rounded=0;align=center;strokeColor=default;verticalAlign=middle;fontFamily=Helvetica;fontSize=12;fontColor=default;fillColor=default;whiteSpace=wrap;" parent="1" vertex="1">
          <mxGeometry x="354" y="370" width="120" height="60" as="geometry" />
        </mxCell>
        <mxCell id="BFdzXG5okMk7Aakmpo8b-17" style="edgeStyle=orthogonalEdgeStyle;rounded=0;orthogonalLoop=1;jettySize=auto;html=1;exitX=0.5;exitY=1;exitDx=0;exitDy=0;entryX=0.5;entryY=0;entryDx=0;entryDy=0;" parent="1" source="BFdzXG5okMk7Aakmpo8b-13" target="BFdzXG5okMk7Aakmpo8b-15" edge="1">
          <mxGeometry relative="1" as="geometry" />
        </mxCell>
        <mxCell id="BFdzXG5okMk7Aakmpo8b-34" style="edgeStyle=orthogonalEdgeStyle;rounded=0;orthogonalLoop=1;jettySize=auto;html=1;exitX=0.75;exitY=1;exitDx=0;exitDy=0;entryX=0;entryY=0.5;entryDx=0;entryDy=0;" parent="1" source="BFdzXG5okMk7Aakmpo8b-13" target="3cnSDZSguUmbzIyHWQNQ-14" edge="1">
          <mxGeometry relative="1" as="geometry">
            <Array as="points">
              <mxPoint x="680" y="400" />
              <mxPoint x="680" y="584" />
            </Array>
          </mxGeometry>
        </mxCell>
        <mxCell id="BFdzXG5okMk7Aakmpo8b-13" value="Право Собственности" style="rounded=0;strokeColor=default;align=center;verticalAlign=middle;fontFamily=Helvetica;fontSize=12;fontColor=default;fillColor=default;imageAlign=center;whiteSpace=wrap;" parent="1" vertex="1">
          <mxGeometry x="544" y="340" width="120" height="60" as="geometry" />
        </mxCell>
        <mxCell id="BFdzXG5okMk7Aakmpo8b-15" value="Доли и Договоры" style="rounded=0;strokeColor=default;align=center;verticalAlign=middle;fontFamily=Helvetica;fontSize=12;fontColor=default;fillColor=default;imageAlign=center;whiteSpace=wrap;" parent="1" vertex="1">
          <mxGeometry x="544" y="420" width="120" height="60" as="geometry" />
        </mxCell>
        <mxCell id="BFdzXG5okMk7Aakmpo8b-35" style="edgeStyle=orthogonalEdgeStyle;rounded=0;orthogonalLoop=1;jettySize=auto;html=1;exitX=0.5;exitY=1;exitDx=0;exitDy=0;entryX=0.5;entryY=0;entryDx=0;entryDy=0;" parent="1" source="BFdzXG5okMk7Aakmpo8b-33" target="3cnSDZSguUmbzIyHWQNQ-14" edge="1">
          <mxGeometry relative="1" as="geometry" />
        </mxCell>
        <mxCell id="BFdzXG5okMk7Aakmpo8b-39" style="edgeStyle=orthogonalEdgeStyle;rounded=0;orthogonalLoop=1;jettySize=auto;html=1;exitX=0.5;exitY=0;exitDx=0;exitDy=0;entryX=1;entryY=0;entryDx=0;entryDy=0;" parent="1" source="BFdzXG5okMk7Aakmpo8b-33" target="BFdzXG5okMk7Aakmpo8b-37" edge="1">
          <mxGeometry relative="1" as="geometry">
            <Array as="points">
              <mxPoint x="750" y="325" />
              <mxPoint x="750" y="205" />
            </Array>
          </mxGeometry>
        </mxCell>
        <mxCell id="BFdzXG5okMk7Aakmpo8b-33" value="ДКП" style="rounded=0;strokeColor=default;align=center;verticalAlign=middle;fontFamily=Helvetica;fontSize=12;fontColor=default;fillColor=default;imageAlign=center;whiteSpace=wrap;" parent="1" vertex="1">
          <mxGeometry x="720" y="325" width="120" height="60" as="geometry" />
        </mxCell>
        <mxCell id="BFdzXG5okMk7Aakmpo8b-37" value="ДКП клиент" style="rounded=0;strokeColor=default;align=center;verticalAlign=middle;fontFamily=Helvetica;fontSize=12;fontColor=default;fillColor=default;imageAlign=center;whiteSpace=wrap;" parent="1" vertex="1">
          <mxGeometry x="37" y="205" width="120" height="60" as="geometry" />
        </mxCell>
        <mxCell id="tV7z-Q59JDjEdSuUqA4o-7" style="edgeStyle=orthogonalEdgeStyle;rounded=0;orthogonalLoop=1;jettySize=auto;html=1;exitX=0.5;exitY=1;exitDx=0;exitDy=0;entryX=0;entryY=0.5;entryDx=0;entryDy=0;" edge="1" parent="1" source="tV7z-Q59JDjEdSuUqA4o-3" target="3cnSDZSguUmbzIyHWQNQ-1">
          <mxGeometry relative="1" as="geometry" />
        </mxCell>
        <mxCell id="tV7z-Q59JDjEdSuUqA4o-3" value="Рабочая группа" style="rounded=0;strokeColor=default;align=center;verticalAlign=middle;fontFamily=Helvetica;fontSize=12;fontColor=default;fillColor=default;imageAlign=center;whiteSpace=wrap;" vertex="1" parent="1">
          <mxGeometry x="274" y="129" width="120" height="60" as="geometry" />
        </mxCell>
      </root>
    </mxGraphModel>
  </diagram>
</mxfile>
